<svg xmlns="http://www.w3.org/2000/svg" x="0px" y="0px"
	 viewBox="0 0 90 60" style="enable-background:new 0 0 90 60;" xml:space="preserve">
<style type="text/css">
	.apexx-logo-class-1{fill:url(#apexx-logo-id-1);}
	.apexx-logo-class-2{fill:#FFFFFF;}
	.apexx-logo-class-3{fill:url(#apexx-logo-id-2);}
</style>
<g>
<g>
	<linearGradient id="apexx-logo-id-1" gradientUnits="userSpaceOnUse" x1="32.8801" y1="38.9842" x2="66.5016" y2="51.7103" gradientTransform="matrix(1 0 0 -1 0 62)">
	<stop  offset="0" style="stop-color:#ADFF00"/>
	<stop  offset="1" style="stop-color:#CCFF00"/>
	</linearGradient>
	<path class="apexx-logo-class-1" d="M19.4,50.2c-7.4-0.3-12.8-0.7-13.9-1.4c-2.1-1.3-3.7-5-4.6-9.7c-0.8-4-1.1-8.8-0.7-13.2
		c0.3-4.5,1.3-8.8,3.1-11.7c1.3-2.1,2.9-3.5,5.1-3.9c3-0.6,21.4-0.9,39.1-0.9L70,0l-9.6,9.6L53,16.8c-2.6,0-5.4,0-8.1,0
		c-16.1,0-32.2,0.3-34.3,0.7c-0.7,0.1-1.3,0.7-1.8,1.5c-1.2,2-1.7,5.5-1.7,9.2C7.1,32,7.5,36,8.1,38.8c0.4,1.9,0.8,3.2,1,3.3
		c0.9,0.5,8,0.8,17.5,1L19.4,50.2L19.4,50.2z"/>
	<path class="apexx-logo-class-2" d="M82.9,10.6c2.7,0.8,4.7,3.9,5.8,8.1c0.9,3.4,1.4,7.5,1.3,11.6c0,4.1-0.5,8.2-1.5,11.5c-1.2,4-3.1,7-5.8,7.7
		c-2.3,0.6-21.6,1.1-40.2,1L20.1,60l9.6-9.5l7.3-7.3c19,0.1,40.8-0.3,42.8-0.7c1-0.2,1.9-2.5,2.4-5.6c0.4-2.3,0.7-4.9,0.7-7.5
		c0-2.6-0.2-5.2-0.7-7.3c-0.6-2.6-1.5-4.4-2.6-4.7c-1.4-0.3-7.7-0.4-16-0.5l7.2-7.1C77,9.9,81.5,10.2,82.9,10.6"/>
	<linearGradient id="apexx-logo-id-2" gradientUnits="userSpaceOnUse" x1="29.6064" y1="31.7815" x2="37.8546" y2="37.54" gradientTransform="matrix(1 0 0 -1 0 62)">
	<stop  offset="0" style="stop-color:#ADFF00"/>
	<stop  offset="1" style="stop-color:#CCFF00"/>
	</linearGradient>
	<path class="apexx-logo-class-3" d="M20.9,25.7h17.9c1.2,0,2.2,1,2.2,2.2v4.3c0,1.2-1,2.2-2.2,2.2H20.9c-1.2,0-2.2-1-2.2-2.2v-4.3
		C18.7,26.7,19.7,25.7,20.9,25.7z"/>
	<path class="apexx-logo-class-2" d="M51.1,25.7h17.9c1.2,0,2.2,1,2.2,2.2v4.3c0,1.2-1,2.2-2.2,2.2H51.1c-1.2,0-2.2-1-2.2-2.2v-4.3
		C49,26.7,49.9,25.7,51.1,25.7z"/>
</g>
</g>
</svg>
